<?xml version="1.0"?>
<svg xmlns="http://www.w3.org/2000/svg" xmlns:xlink="http://www.w3.org/1999/xlink" version="1.1" id="Layer_1" x="0px" y="0px" viewBox="0 0 512 512" style="enable-background:new 0 0 512 512;" xml:space="preserve" width="512px" height="512px" class=""><g><g>
	<g>
		<path d="M73.3,360.807H53.626c-6.084,0-11.015,4.931-11.015,11.015c0,6.084,4.931,11.015,11.015,11.015H73.3    c6.083,0,11.015-4.931,11.015-11.015C84.316,365.739,79.385,360.807,73.3,360.807z" data-original="#000000" class="active-path" data-old_color="#000000" fill="#D92027"/>
	</g>
</g><g>
	<g>
		<path d="M128.127,360.807h-19.675c-6.084,0-11.015,4.931-11.015,11.015c0,6.084,4.931,11.015,11.015,11.015h19.675    c6.084,0,11.015-4.931,11.015-11.015C139.142,365.739,134.211,360.807,128.127,360.807z" data-original="#000000" class="active-path" data-old_color="#000000" fill="#D92027"/>
	</g>
</g><g>
	<g>
		<path d="M182.953,360.807h-19.675c-6.084,0-11.015,4.931-11.015,11.015c0,6.084,4.931,11.015,11.015,11.015h19.675    c6.084,0,11.015-4.931,11.015-11.015C193.968,365.739,189.037,360.807,182.953,360.807z" data-original="#000000" class="active-path" data-old_color="#000000" fill="#D92027"/>
	</g>
</g><g>
	<g>
		<path d="M237.78,360.807h-19.675c-6.084,0-11.015,4.931-11.015,11.015c0,6.084,4.931,11.015,11.015,11.015h19.675    c6.084,0,11.015-4.931,11.015-11.015C248.796,365.739,243.865,360.807,237.78,360.807z" data-original="#000000" class="active-path" data-old_color="#000000" fill="#D92027"/>
	</g>
</g><g>
	<g>
		<path d="M132.817,240.946H53.626c-6.084,0-11.015,4.931-11.015,11.015v55.339c0,6.084,4.931,11.015,11.015,11.015h79.191    c6.084,0,11.015-4.931,11.015-11.015v-55.339C143.832,245.877,138.901,240.946,132.817,240.946z M121.801,296.285h-57.16v-33.308    h57.16V296.285z" data-original="#000000" class="active-path" data-old_color="#000000" fill="#D92027"/>
	</g>
</g><g>
	<g>
		<path d="M406.255,218.361H299.276c-6.084,0-11.015,4.931-11.015,11.015c0,6.084,4.931,11.015,11.015,11.015h106.979    c6.084,0,11.015-4.931,11.015-11.015C417.271,223.292,412.34,218.361,406.255,218.361z" data-original="#000000" class="active-path" data-old_color="#000000" fill="#D92027"/>
	</g>
</g><g>
	<g>
		<path d="M368.491,338.064c-7.657,0-14.837,2.06-21.035,5.637c-6.358-3.668-13.597-5.637-21.069-5.637    c-23.278,0-42.215,18.938-42.215,42.215s18.938,42.214,42.215,42.214c7.471,0,14.711-1.969,21.069-5.637    c6.198,3.578,13.379,5.637,21.035,5.637c23.278,0,42.215-18.938,42.215-42.214C410.707,357.002,391.769,338.064,368.491,338.064z     M331.12,399.88c-1.538,0.37-3.122,0.581-4.733,0.581c-11.13,0.001-20.184-9.053-20.184-20.183    c0-11.13,9.053-20.184,20.184-20.184c1.612,0,3.196,0.212,4.733,0.581c-3.088,5.863-4.844,12.529-4.844,19.603    C326.276,387.351,328.034,394.019,331.12,399.88z M368.491,400.463c-11.13,0-20.184-9.053-20.184-20.183    c0-11.13,9.053-20.184,20.184-20.184s20.184,9.053,20.184,20.184C388.676,391.408,379.621,400.463,368.491,400.463z" data-original="#000000" class="active-path" data-old_color="#000000" fill="#D92027"/>
	</g>
</g><g>
	<g>
		<path d="M511.83,311.953L488.132,70.745c-0.907-9.236-5.357-17.566-12.529-23.454c-7.171-5.888-16.211-8.636-25.443-7.726    L61.634,77.738c-9.236,0.907-17.566,5.357-23.454,12.529c-5.888,7.171-8.632,16.207-7.725,25.443l4.424,45.042h-0.137    C15.586,160.752,0,176.337,0,195.495v242.368c0,19.157,15.586,34.743,34.743,34.743h390.396c19.157,0,34.743-15.584,34.743-34.743    v-85.897l20.769-2.042c9.236-0.907,17.566-5.356,23.456-12.528C509.994,330.224,512.737,321.187,511.83,311.953z M437.85,437.863    h-0.001c0,7.009-5.702,12.712-12.712,12.712H34.743c-7.009,0-12.712-5.702-12.712-12.712V195.495    c0-7.009,5.702-12.712,12.712-12.712h390.396c7.009,0,12.712,5.702,12.712,12.712V437.863z M487.077,323.415    c-2.154,2.625-5.202,4.253-8.581,4.584l-18.616,1.83V195.495c0-19.157-15.584-34.743-34.743-34.743H57.017l-4.636-47.196    c-0.332-3.379,0.672-6.685,2.826-9.309c2.154-2.624,5.202-4.252,8.581-4.584l388.526-38.172    c6.963-0.693,13.207,4.432,13.894,11.407l23.697,241.208C490.236,317.486,489.232,320.792,487.077,323.415z" data-original="#000000" class="active-path" data-old_color="#000000" fill="#D92027"/>
	</g>
</g></g> </svg>
